<svg width="51" height="50" viewBox="0 0 51 50" fill="none" xmlns="http://www.w3.org/2000/svg">
<g clip-path="url(#clip0_2001_2)">
<path d="M23.1888 0.0473212C23.8492 -0.0393926 24.5469 0.0196354 25.2125 0.0196354C27.6783 0.0196354 30.0993 0.402469 32.4586 1.12804C35.4695 2.05408 38.274 3.53461 40.7492 5.4824C43.783 7.86977 46.2968 11.0011 47.9099 14.5155C50.9278 21.0905 50.9056 29.0589 47.8138 35.6062C45.8146 39.8396 42.6074 43.3828 38.7255 45.9666C35.5582 48.0748 31.8538 49.3653 28.0848 49.8222C23.2874 50.4038 18.1011 49.5539 13.7884 47.3427C5.69231 43.1915 0.188199 34.8369 0.0793114 25.6812C0.0583565 23.9159 0.0858395 22.1402 0.435285 20.3921C1.00446 17.5453 1.99685 14.7934 3.48727 12.2954C5.0995 9.59308 7.182 7.20845 9.67577 5.28586C12.6002 3.03124 15.9991 1.40954 19.5984 0.584515C20.4676 0.385298 21.3404 0.274895 22.2175 0.168119L22.4947 0.134422C22.7257 0.106275 22.9571 0.0777594 23.1888 0.0473212ZM14.8133 41.6717C13.6984 41.7912 12.5225 41.9941 11.5656 42.6203C11.781 42.6721 12.0279 42.6207 12.2526 42.6203C12.7924 42.6194 13.3373 42.5991 13.8765 42.6228C15.2263 42.682 16.6327 42.8979 17.9362 43.2553C19.6051 43.713 21.075 44.6136 22.6828 45.2209C24.379 45.8615 26.0675 46.0606 27.8667 46.0606C28.7734 46.0606 29.6732 46.0579 30.5523 45.8104C30.0935 45.5661 29.4367 45.6119 28.9284 45.5102C27.8257 45.2893 26.7414 45.0196 25.6807 44.6412C24.9 44.3627 24.1481 44.0189 23.3996 43.6678L22.9186 43.4417C22.2239 43.1152 21.5275 42.7931 20.8091 42.5218C18.9203 41.8083 16.8273 41.4557 14.8133 41.6717ZM16.4997 36.9282C14.2903 36.9282 12.0557 37.3174 10.0667 38.3198C9.58477 38.5627 9.12671 38.8521 8.69264 39.1727C8.56036 39.2705 8.32584 39.3961 8.27694 39.5661C8.22735 39.7385 8.40466 39.8829 8.50527 39.9932C9.00243 39.7282 9.47478 39.4477 10.0042 39.2466C13.4284 37.9458 17.5794 38.2185 20.9965 39.4111C22.7006 40.0059 24.2707 40.8954 25.9306 41.593C27.7869 42.3731 29.6829 42.879 31.6765 43.1384C34.0282 43.4442 36.7094 43.1963 38.859 42.1352C39.6143 41.7623 40.6631 41.1941 40.9825 40.3685C40.588 40.4029 40.2331 40.572 39.8583 40.6885C39.2623 40.8738 38.6592 41.0309 38.047 41.1536C35.9722 41.5692 33.7658 41.655 31.6765 41.2778C29.7074 40.9222 27.8778 40.2081 26.0569 39.4569L25.8244 39.3609C25.6695 39.2967 25.5146 39.2324 25.3596 39.1681L25.1271 39.0717C24.1968 38.6864 23.2629 38.3057 22.3081 37.9725C20.4531 37.325 18.4652 36.9282 16.4997 36.9282ZM20.3719 2.98946C17.7235 3.5745 15.351 4.71374 13.0646 6.14991C11.7372 6.98366 10.4675 7.83779 9.31721 8.91085C7.60666 10.5067 6.29932 12.4464 5.15912 14.4723C3.98432 16.5597 3.2311 18.9925 2.86704 21.353C2.50992 23.6687 2.45109 26.1035 2.86017 28.4212C3.37156 31.3188 4.34494 34.0379 5.88212 36.5529C6.39869 36.3116 6.76543 35.7615 7.1937 35.391C8.05846 34.6428 8.96639 33.9494 9.94177 33.3509C10.3028 33.1294 10.6738 32.9574 11.066 32.7998C11.2139 32.7403 11.4558 32.686 11.5255 32.5234C11.6361 32.2654 11.4315 31.8162 11.3963 31.5488C11.2959 30.784 11.2354 30.0061 11.2543 29.2344C11.3092 26.9867 11.7293 24.7078 12.529 22.604C13.1316 21.0188 14.0522 19.5796 15.1428 18.2879C15.5129 17.8497 15.9063 17.4417 16.3123 17.037C16.5523 16.7978 16.85 16.5931 16.9993 16.2863C16.2162 16.2868 15.433 16.5126 14.6884 16.7419C13.0843 17.2358 11.5217 17.9686 10.1916 19.0026C9.58489 19.4743 9.14058 20.0925 8.56679 20.589C8.39079 20.7413 8.07551 20.9454 7.83231 20.8305C7.46488 20.6569 7.52159 19.9339 7.47949 19.6015C7.31761 18.3232 7.80183 16.7063 8.41721 15.5983C9.40508 13.8195 11.2317 12.3006 13.3769 12.3537C14.3033 12.3766 15.1143 12.6984 16 12.9086C15.7754 12.5895 15.4743 12.3569 15.1881 12.0954C14.4868 11.4546 13.7197 10.8693 12.8772 10.4265C12.5383 10.2484 12.1733 10.1402 11.8155 10.0094C11.6355 9.94364 11.4089 9.85312 11.3412 9.65315C11.2159 9.28278 11.8828 8.93975 12.1277 8.78356C13.0747 8.17982 14.2358 7.68317 15.3755 7.6552C17.1565 7.61148 18.8966 8.59973 19.6302 10.2814C19.8881 10.8726 19.9644 11.4977 20.015 12.1286L20.0242 12.247L20.0374 12.4247C20.0389 12.4444 20.0403 12.4642 20.0418 12.4839L20.0506 12.6024L20.0597 12.7209C20.619 12.2649 21.0124 11.5939 21.5586 11.1055C22.836 9.96315 24.5841 9.45605 26.2428 9.97028C27.7418 10.4349 29.0447 11.4694 29.8115 12.846C30.0121 13.2062 30.5717 14.0865 30.1674 14.4452C29.8509 14.726 29.4496 14.5072 29.1158 14.3907C28.8631 14.3025 28.602 14.2466 28.3399 14.1948L28.1969 14.1668C28.1493 14.1575 28.1016 14.1482 28.0541 14.1386C27.1464 13.9567 26.0907 13.9756 25.1811 14.1355C24.593 14.2389 24.0183 14.4482 23.4323 14.5349V14.66C25.0346 14.6732 26.5845 15.5873 27.375 16.9744C27.7025 17.549 27.8661 18.2068 27.9915 18.8509C28.1467 19.6471 28.0376 20.5145 27.8201 21.2904C27.7472 21.5505 27.6147 21.9916 27.3036 22.0515C27.0837 22.0939 26.897 21.8749 26.7715 21.7273C26.4424 21.3404 26.1293 20.9725 25.7432 20.6384C24.7662 19.7931 23.7333 19.0134 22.6828 18.2616C22.1251 17.8624 21.5142 17.3434 20.8716 17.0995C21.0523 17.5347 21.2293 17.9394 21.2907 18.413C21.4715 19.8064 20.8882 21.1179 20.0126 22.1661C19.7454 22.486 19.4596 22.8082 19.1228 23.0567C18.9832 23.1598 18.8079 23.2944 18.6232 23.2653C18.044 23.1738 17.975 22.3007 17.8862 21.8534C17.5854 20.3383 17.7062 18.8336 18.1235 17.3497C17.7522 17.538 17.4839 17.95 17.2507 18.2879C16.7377 19.0316 16.2927 19.8182 15.9735 20.6649C14.7025 24.0376 14.7147 27.9879 16.3613 31.2348C16.5452 31.5974 16.8243 31.5488 17.1867 31.5488C17.2413 31.5488 17.296 31.5484 17.3507 31.5479L17.5149 31.5463C17.8436 31.5428 18.173 31.5414 18.4983 31.5848C18.667 31.6073 18.9014 31.5872 19.035 31.7116C19.1949 31.8606 19.1096 32.1161 19.0728 32.2994C18.9699 32.8119 18.9355 33.2777 18.9355 33.8006C19.6191 33.6947 19.8086 32.5986 20.0509 32.0492C20.3255 31.4267 20.605 30.8037 20.859 30.1727C20.984 29.8625 21.151 29.5157 21.1072 29.1718C21.058 28.7853 20.7787 28.3756 20.5841 28.0459C20.2157 27.4221 19.797 26.7801 19.5259 26.1068C19.3091 25.5686 19.5109 24.896 20.1222 24.7037C20.4593 24.5976 20.819 24.8056 21.0384 25.0493C21.4985 25.5602 21.7955 26.3204 22.1295 26.92L24.7351 31.6113C24.9564 32.0086 25.1782 32.4054 25.4046 32.7998C25.4929 32.9537 25.5828 33.1912 25.7637 33.2569C25.9249 33.3153 26.145 33.2322 26.3053 33.2001C26.7214 33.1168 27.1368 33.0269 27.5544 32.9514C28.0548 32.861 28.8176 32.878 29.1783 32.487C28.6508 32.32 28.041 32.3298 27.492 32.3675C27.1622 32.3901 26.7966 32.5081 26.4936 32.3155C26.0426 32.0289 25.7428 31.3669 25.4669 30.9233C24.7865 29.8294 24.1456 28.719 23.4941 27.6081L23.3898 27.4312L23.1803 27.0777C23.0757 26.9009 22.9719 26.7236 22.8712 26.5447C22.7934 26.4063 22.678 26.224 22.7895 26.0714C22.9066 25.9112 23.1618 25.9018 23.3923 25.9015L23.438 25.9015C23.5285 25.9016 23.6134 25.9017 23.6821 25.8927C24.612 25.7703 25.5548 25.669 26.4927 25.669C26.4196 25.415 26.2109 25.128 26.2776 24.8561C26.427 24.2477 27.3023 24.0573 27.7094 24.4939C27.9827 24.7869 28.1416 25.1903 28.3194 25.5439C28.554 26.0107 28.8212 26.4619 29.0725 26.92C29.5123 27.722 29.9926 28.5019 30.4449 29.2969C30.4822 29.3625 30.5207 29.4277 30.5595 29.4929L30.618 29.5907C30.8132 29.9167 31.0092 30.2449 31.1144 30.6105C29.5435 30.5386 28.3643 28.7151 27.6793 27.483C27.6247 27.6802 27.7135 27.8563 27.7845 28.0459C27.9321 28.4397 28.1085 28.8147 28.3304 29.1718C28.6475 29.6819 29.0109 30.2071 29.4906 30.5774C30.3418 31.2345 31.4642 31.2381 32.4884 31.1679C33.1452 31.1228 33.9659 30.8238 34.612 31.0267C35.2569 31.2292 35.5166 31.9405 35.1335 32.487C34.8466 32.8963 34.4636 33.0509 33.9874 33.1126C34.3242 33.835 34.7654 34.5054 35.0851 35.2393C35.2183 35.545 35.3572 36.0136 35.6764 36.1749C35.8889 36.2823 36.1934 36.1823 36.4232 36.1776C36.1926 35.5674 35.7608 35.0497 35.5488 34.4261C36.1953 34.4557 36.8205 34.793 37.4225 35.0083C38.6066 35.4318 39.7758 35.8949 40.9433 36.3621L41.4821 36.5779C41.9624 36.7702 42.4455 36.9606 42.9186 37.1697C43.0918 37.2462 43.3315 37.4251 43.5228 37.315C43.679 37.2251 43.78 37.0108 43.8763 36.8656C44.1456 36.4594 44.3896 36.0377 44.6312 35.6146C45.599 33.9202 46.3088 32.0636 46.783 30.1727C48.347 23.9361 47.0053 17.0548 43.2468 11.8452C41.8028 9.84362 39.9868 8.1132 37.9846 6.68016C32.974 3.09404 26.4004 1.65787 20.3719 2.98946ZM30.6148 34.0902C29.2865 34.4364 27.9177 34.7503 26.5551 34.9265C26.7343 35.5366 27.1722 36.13 27.4927 36.678C27.6166 36.8898 27.7492 37.1736 27.9941 37.2655C28.2707 37.3693 28.605 37.2008 28.866 37.1158C28.7451 36.7852 28.5418 36.4876 28.3753 36.1776C28.3068 36.0497 28.2006 35.8983 28.2572 35.7465C28.364 35.4597 28.8077 35.4765 29.0534 35.4267C29.7008 35.2953 30.3416 35.1314 30.9895 35.0016C31.2282 34.9537 31.5606 34.8241 31.8005 34.9042C31.9801 34.9641 32.0884 35.1121 32.1908 35.2665L32.2367 35.3361C32.298 35.4287 32.3608 35.5192 32.4391 35.5899C32.7011 35.8265 33.0928 35.8628 33.4253 35.9273C33.2224 35.4707 32.8851 35.0712 32.6689 34.6138C32.5432 34.3477 32.4399 33.9564 32.1646 33.8026C31.7854 33.5908 31.0024 33.9891 30.6148 34.0902ZM22.2456 31.0484C22.1831 31.8414 21.9399 32.4866 21.5586 33.1751C21.9955 33.2304 22.4411 33.2501 22.8702 33.3564C23.1918 33.4361 23.4881 33.5881 23.807 33.6755C23.6365 33.209 23.3202 32.7928 23.0751 32.3619C22.8277 31.927 22.6062 31.3985 22.2456 31.0484Z" fill="#E3E3E3"/>
</g>
<defs>
<clipPath id="clip0_2001_2">
<rect width="50.2273" height="50" fill="white"/>
</clipPath>
</defs>
</svg>
